<svg width="59" height="59" viewBox="0 0 59 59" fill="none" xmlns="http://www.w3.org/2000/svg">
<path d="M27.1148 2.14815C27.1148 1.29811 28.1081 0.835703 28.7586 1.38294L37.0675 8.37335C37.5501 8.77936 37.5409 9.52527 37.0485 9.91933L28.7396 16.5687C28.0849 17.0927 27.1148 16.6266 27.1148 15.788V14.0719C23.4307 14.6052 20.0601 16.456 17.6193 19.2859C15.1785 22.1159 13.8305 25.736 13.8216 29.4845C13.8134 32.9244 14.9335 36.2616 16.9939 38.9838C17.3079 39.3987 17.289 39.9854 16.9226 40.3548L12.0673 45.2496C11.6631 45.6571 10.9978 45.6425 10.632 45.2001C6.99182 40.7973 4.9914 35.2378 5.00003 29.4861C5.00919 23.3803 7.28174 17.4979 11.3725 12.9915C15.4632 8.48506 21.0773 5.67931 27.1148 5.12395V2.14815Z" fill="white"/>
<path d="M28.4365 1.76562C28.1113 1.49209 27.6152 1.72345 27.6152 2.14844V5.58008L27.1602 5.62207C21.2481 6.16601 15.75 8.91334 11.7432 13.3271C7.73608 17.7414 5.50897 23.505 5.5 29.4873C5.49166 35.1224 7.45185 40.569 11.0176 44.8818C11.1857 45.0849 11.5055 45.1053 11.7119 44.8975L16.5674 40.0029C16.7459 39.823 16.7706 39.5163 16.5957 39.2852C14.4693 36.4758 13.3129 33.0326 13.3213 29.4834C13.3305 25.6158 14.7211 21.8797 17.2402 18.959C19.7594 16.0382 23.2391 14.1278 27.043 13.5771L27.6152 13.4941V15.7881C27.6153 16.2071 28.0994 16.4401 28.4268 16.1787L36.7363 9.5293C36.9825 9.33227 36.9864 8.95886 36.7451 8.75586L28.4365 1.76562Z" stroke="black" stroke-opacity="0.55"/>
<path d="M31.8852 56.8518C31.8852 57.7019 30.8919 58.1643 30.2414 57.6171L21.9325 50.6266C21.4499 50.2206 21.4591 49.4747 21.9515 49.0807L30.2604 42.4313C30.9151 41.9073 31.8852 42.3734 31.8852 43.212V44.9281C35.5693 44.3948 38.9399 42.544 41.3807 39.7141C43.8215 36.8841 45.1695 33.264 45.1784 29.5155C45.1866 26.0756 44.0665 22.7384 42.0061 20.0162C41.6921 19.6013 41.711 19.0146 42.0774 18.6452L46.9327 13.7504C47.3369 13.3429 48.0022 13.3575 48.368 13.7999C52.0082 18.2027 54.0086 23.7622 54 29.5139C53.9908 35.6197 51.7183 41.5021 47.6275 46.0085C43.5368 50.5149 37.9227 53.3207 31.8852 53.876V56.8518Z" fill="white"/>
<path d="M30.5635 57.2344C30.8887 57.5079 31.3848 57.2766 31.3848 56.8516V53.4199L31.8398 53.3779C37.7519 52.834 43.25 50.0867 47.2568 45.6729C51.2639 41.2586 53.491 35.495 53.5 29.5127C53.5083 23.8776 51.5481 18.431 47.9824 14.1182C47.8143 13.9151 47.4945 13.8947 47.2881 14.1025L42.4326 18.9971C42.2541 19.177 42.2294 19.4837 42.4043 19.7148C44.5307 22.5242 45.6871 25.9674 45.6787 29.5166C45.6695 33.3842 44.2789 37.1203 41.7598 40.041C39.2406 42.9618 35.7609 44.8722 31.957 45.4229L31.3848 45.5059V43.2119C31.3847 42.7929 30.9006 42.5599 30.5732 42.8213L22.2637 49.4707C22.0175 49.6677 22.0136 50.0411 22.2549 50.2441L30.5635 57.2344Z" stroke="black" stroke-opacity="0.55"/>
</svg>
