<svg width="75" height="75" viewBox="0 0 75 75" fill="none" xmlns="http://www.w3.org/2000/svg">
<path d="M75 37.5C75 58.4868 58.4868 75 37.5 75C16.5132 75 0 58.4868 0 37.5C0 16.5132 16.5132 0 37.5 0C58.4868 0 75 16.5132 75 37.5Z" fill="black" fill-opacity="0.45"/>
<path d="M37.5 4C56.2556 4 71 18.7444 71 37.5C71 56.2556 56.2556 71 37.5 71C18.7444 71 4 56.2556 4 37.5C4 18.7444 18.7444 4 37.5 4Z" stroke="white" stroke-width="2"/>
<path d="M36.0008 21C25.1595 21 16.2233 35.683 23.7525 46.6481C23.8916 46.8506 23.873 47.1278 23.6992 47.3015L19.4125 51.5884C19.196 51.8049 18.8372 51.7778 18.6608 51.5275C15.3291 46.7971 13.9633 41.7773 14.001 37C14.098 24.6957 23.8684 14 36.0008 14V11.0223C36.0008 10.6062 36.4793 10.3722 36.8078 10.6276L44.4934 16.6053C44.7508 16.8055 44.7508 17.1945 44.4934 17.3947L36.8078 23.3724C36.4793 23.6278 36.0008 23.3938 36.0008 22.9777V21Z" fill="white"/>
<path d="M39.0012 54C49.8424 54 58.7787 39.317 51.2494 28.3519C51.1104 28.1494 51.129 27.8722 51.3027 27.6985L55.5895 23.4116C55.806 23.1951 56.1648 23.2222 56.3411 23.4725C59.6729 28.2029 61.0386 33.2227 61.001 38C60.904 50.3043 51.1335 61 39.0012 61V63.9777C39.0012 64.3938 38.5226 64.6278 38.1942 64.3724L30.5085 58.3947C30.2511 58.1945 30.2511 57.8055 30.5085 57.6053L38.1942 51.6276C38.5226 51.3722 39.0012 51.6062 39.0012 52.0223V54Z" fill="white"/>
</svg>
